<?xml version="1.0" encoding="UTF-8"?>
<svg width="133px" height="39px" viewBox="0 0 133 39" version="1.1" xmlns="http://www.w3.org/2000/svg" xmlns:xlink="http://www.w3.org/1999/xlink">
    <!-- Generator: Sketch 49.3 (51167) - http://www.bohemiancoding.com/sketch -->
    <title>Xarxes</title>
    <desc>Created with Sketch.</desc>
    <defs>
        <path d="M19.84,38.68 C19.9840007,39.2560029 20.056,39.9759957 20.056,40.84 C20.056,41.6680041 19.9840007,42.3879969 19.84,43 L15.52,43 C15.3759993,42.3879969 15.304,41.6680041 15.304,40.84 C15.304,39.9759957 15.3759993,39.2560029 15.52,38.68 L13.9,38.68 C13.7559993,38.0679969 13.684,37.3480041 13.684,36.52 C13.684,35.6559957 13.7559993,34.9360029 13.9,34.36 L12.82,34.36 C12.6759993,33.7479969 12.604,33.0280041 12.604,32.2 C12.604,31.3359957 12.6759993,30.6160029 12.82,30.04 L9.58,30.04 C9.72400072,30.6160029 9.796,31.3359957 9.796,32.2 C9.796,33.0280041 9.72400072,33.7479969 9.58,34.36 L8.5,34.36 C8.64400072,34.9360029 8.716,35.6559957 8.716,36.52 C8.716,37.3480041 8.64400072,38.0679969 8.5,38.68 L6.88,38.68 C7.02400072,39.2560029 7.096,39.9759957 7.096,40.84 C7.096,41.6680041 7.02400072,42.3879969 6.88,43 L2.56,43 C2.41599928,42.3879969 2.344,41.6680041 2.344,40.84 C2.344,39.9759957 2.41599928,39.2560029 2.56,38.68 L4.18,38.68 C4.03599928,38.0679969 3.964,37.3480041 3.964,36.52 C3.964,35.6559957 4.03599928,34.9360029 4.18,34.36 L6.34,34.36 C6.19599928,33.7479969 6.124,33.0280041 6.124,32.2 C6.124,31.3359957 6.19599928,30.6160029 6.34,30.04 L7.96,30.04 C7.81599928,29.4279969 7.744,28.7080041 7.744,27.88 C7.744,27.0159957 7.81599928,26.2960029 7.96,25.72 L6.34,25.72 C6.19599928,25.1079969 6.124,24.3880041 6.124,23.56 C6.124,22.6959957 6.19599928,21.9760029 6.34,21.4 L4.18,21.4 C4.03599928,20.7879969 3.964,20.0680041 3.964,19.24 C3.964,18.3759957 4.03599928,17.6560029 4.18,17.08 L2.56,17.08 C2.41599928,16.4679969 2.344,15.7480041 2.344,14.92 C2.344,14.0559957 2.41599928,13.3360029 2.56,12.76 L6.88,12.76 C7.02400072,13.3360029 7.096,14.0559957 7.096,14.92 C7.096,15.7480041 7.02400072,16.4679969 6.88,17.08 L8.5,17.08 C8.64400072,17.6560029 8.716,18.3759957 8.716,19.24 C8.716,20.0680041 8.64400072,20.7879969 8.5,21.4 L9.58,21.4 C9.72400072,21.9760029 9.796,22.6959957 9.796,23.56 C9.796,24.3880041 9.72400072,25.1079969 9.58,25.72 L12.82,25.72 C12.6759993,25.1079969 12.604,24.3880041 12.604,23.56 C12.604,22.6959957 12.6759993,21.9760029 12.82,21.4 L13.9,21.4 C13.7559993,20.7879969 13.684,20.0680041 13.684,19.24 C13.684,18.3759957 13.7559993,17.6560029 13.9,17.08 L15.52,17.08 C15.3759993,16.4679969 15.304,15.7480041 15.304,14.92 C15.304,14.0559957 15.3759993,13.3360029 15.52,12.76 L19.84,12.76 C19.9840007,13.3360029 20.056,14.0559957 20.056,14.92 C20.056,15.7480041 19.9840007,16.4679969 19.84,17.08 L18.22,17.08 C18.3640007,17.6560029 18.436,18.3759957 18.436,19.24 C18.436,20.0680041 18.3640007,20.7879969 18.22,21.4 L16.06,21.4 C16.2040007,21.9760029 16.276,22.6959957 16.276,23.56 C16.276,24.3880041 16.2040007,25.1079969 16.06,25.72 L14.44,25.72 C14.5840007,26.2960029 14.656,27.0159957 14.656,27.88 C14.656,28.7080041 14.5840007,29.4279969 14.44,30.04 L16.06,30.04 C16.2040007,30.6160029 16.276,31.3359957 16.276,32.2 C16.276,33.0280041 16.2040007,33.7479969 16.06,34.36 L18.22,34.36 C18.3640007,34.9360029 18.436,35.6559957 18.436,36.52 C18.436,37.3480041 18.3640007,38.0679969 18.22,38.68 L19.84,38.68 Z M41.44,38.68 C41.5840007,39.2560029 41.656,39.9759957 41.656,40.84 C41.656,41.6680041 41.5840007,42.3879969 41.44,43 L37.12,43 C36.9759993,42.3879969 36.904,41.6680041 36.904,40.84 C36.904,39.9759957 36.9759993,39.2560029 37.12,38.68 L34.96,38.68 C34.8159993,38.0679969 34.744,37.3480041 34.744,36.52 C34.744,35.6559957 34.8159993,34.9360029 34.96,34.36 L28.48,34.36 C28.6240007,34.9360029 28.696,35.6559957 28.696,36.52 C28.696,37.3480041 28.6240007,38.0679969 28.48,38.68 L34.96,38.68 C35.1040007,39.2560029 35.176,39.9759957 35.176,40.84 C35.176,41.6680041 35.1040007,42.3879969 34.96,43 L26.32,43 C26.1759993,42.3879969 26.104,41.6680041 26.104,40.84 C26.104,39.9759957 26.1759993,39.2560029 26.32,38.68 L24.16,38.68 C24.0159993,38.0679969 23.944,37.3480041 23.944,36.52 C23.944,35.6559957 24.0159993,34.9360029 24.16,34.36 L26.32,34.36 C26.1759993,33.7479969 26.104,33.0280041 26.104,32.2 C26.104,31.3359957 26.1759993,30.6160029 26.32,30.04 L34.96,30.04 C34.8159993,29.4279969 34.744,28.7080041 34.744,27.88 C34.744,27.0159957 34.8159993,26.2960029 34.96,25.72 L27.4,25.72 C27.2559993,25.1079969 27.184,24.3880041 27.184,23.56 C27.184,22.6959957 27.2559993,21.9760029 27.4,21.4 L37.12,21.4 C37.2640007,21.9760029 37.336,22.6959957 37.336,23.56 C37.336,24.3880041 37.2640007,25.1079969 37.12,25.72 L39.28,25.72 C39.4240007,26.2960029 39.496,27.0159957 39.496,27.88 C39.496,28.7080041 39.4240007,29.4279969 39.28,30.04 C39.4240007,30.6160029 39.496,31.3359957 39.496,32.2 C39.496,33.0280041 39.4240007,33.7479969 39.28,34.36 C39.4240007,34.9360029 39.496,35.6559957 39.496,36.52 C39.496,37.3480041 39.4240007,38.0679969 39.28,38.68 L41.44,38.68 Z M63.04,25.72 C63.1840007,26.2960029 63.256,27.0159957 63.256,27.88 C63.256,28.7080041 63.1840007,29.4279969 63.04,30.04 L58.72,30.04 C58.5759993,29.4279969 58.504,28.7080041 58.504,27.88 C58.504,27.0159957 58.5759993,26.2960029 58.72,25.72 L54.94,25.72 C55.0840007,26.2960029 55.156,27.0159957 55.156,27.88 C55.156,28.7080041 55.0840007,29.4279969 54.94,30.04 L53.32,30.04 C53.4640007,30.6160029 53.536,31.3359957 53.536,32.2 C53.536,33.0280041 53.4640007,33.7479969 53.32,34.36 C53.4640007,34.9360029 53.536,35.6559957 53.536,36.52 C53.536,37.3480041 53.4640007,38.0679969 53.32,38.68 L56.56,38.68 C56.7040007,39.2560029 56.776,39.9759957 56.776,40.84 C56.776,41.6680041 56.7040007,42.3879969 56.56,43 L45.76,43 C45.6159993,42.3879969 45.544,41.6680041 45.544,40.84 C45.544,39.9759957 45.6159993,39.2560029 45.76,38.68 L49,38.68 C48.8559993,38.0679969 48.784,37.3480041 48.784,36.52 C48.784,35.6559957 48.8559993,34.9360029 49,34.36 C48.8559993,33.7479969 48.784,33.0280041 48.784,32.2 C48.784,31.3359957 48.8559993,30.6160029 49,30.04 C48.8559993,29.4279969 48.784,28.7080041 48.784,27.88 C48.784,27.0159957 48.8559993,26.2960029 49,25.72 L45.76,25.72 C45.6159993,25.1079969 45.544,24.3880041 45.544,23.56 C45.544,22.6959957 45.6159993,21.9760029 45.76,21.4 L51.16,21.4 C51.3040007,21.9760029 51.376,22.6959957 51.376,23.56 C51.376,24.3880041 51.3040007,25.1079969 51.16,25.72 L53.32,25.72 C53.1759993,25.1079969 53.104,24.3880041 53.104,23.56 C53.104,22.6959957 53.1759993,21.9760029 53.32,21.4 L61.42,21.4 C61.5640007,21.9760029 61.636,22.6959957 61.636,23.56 C61.636,24.3880041 61.5640007,25.1079969 61.42,25.72 L63.04,25.72 Z M83.56,38.68 C83.7040007,39.2560029 83.776,39.9759957 83.776,40.84 C83.776,41.6680041 83.7040007,42.3879969 83.56,43 L79.24,43 C79.0959993,42.3879969 79.024,41.6680041 79.024,40.84 C79.024,39.9759957 79.0959993,39.2560029 79.24,38.68 L77.62,38.68 C77.4759993,38.0679969 77.404,37.3480041 77.404,36.52 C77.404,35.6559957 77.4759993,34.9360029 77.62,34.36 L74.92,34.36 C75.0640007,34.9360029 75.136,35.6559957 75.136,36.52 C75.136,37.3480041 75.0640007,38.0679969 74.92,38.68 L72.76,38.68 C72.9040007,39.2560029 72.976,39.9759957 72.976,40.84 C72.976,41.6680041 72.9040007,42.3879969 72.76,43 L68.44,43 C68.2959993,42.3879969 68.224,41.6680041 68.224,40.84 C68.224,39.9759957 68.2959993,39.2560029 68.44,38.68 L70.6,38.68 C70.4559993,38.0679969 70.384,37.3480041 70.384,36.52 C70.384,35.6559957 70.4559993,34.9360029 70.6,34.36 L72.76,34.36 C72.6159993,33.7479969 72.544,33.0280041 72.544,32.2 C72.544,31.3359957 72.6159993,30.6160029 72.76,30.04 L70.6,30.04 C70.4559993,29.4279969 70.384,28.7080041 70.384,27.88 C70.384,27.0159957 70.4559993,26.2960029 70.6,25.72 L68.44,25.72 C68.2959993,25.1079969 68.224,24.3880041 68.224,23.56 C68.224,22.6959957 68.2959993,21.9760029 68.44,21.4 L72.76,21.4 C72.9040007,21.9760029 72.976,22.6959957 72.976,23.56 C72.976,24.3880041 72.9040007,25.1079969 72.76,25.72 L74.92,25.72 C75.0640007,26.2960029 75.136,27.0159957 75.136,27.88 C75.136,28.7080041 75.0640007,29.4279969 74.92,30.04 L77.62,30.04 C77.4759993,29.4279969 77.404,28.7080041 77.404,27.88 C77.404,27.0159957 77.4759993,26.2960029 77.62,25.72 L79.24,25.72 C79.0959993,25.1079969 79.024,24.3880041 79.024,23.56 C79.024,22.6959957 79.0959993,21.9760029 79.24,21.4 L83.56,21.4 C83.7040007,21.9760029 83.776,22.6959957 83.776,23.56 C83.776,24.3880041 83.7040007,25.1079969 83.56,25.72 L81.94,25.72 C82.0840007,26.2960029 82.156,27.0159957 82.156,27.88 C82.156,28.7080041 82.0840007,29.4279969 81.94,30.04 L79.24,30.04 C79.3840007,30.6160029 79.456,31.3359957 79.456,32.2 C79.456,33.0280041 79.3840007,33.7479969 79.24,34.36 L81.94,34.36 C82.0840007,34.9360029 82.156,35.6559957 82.156,36.52 C82.156,37.3480041 82.0840007,38.0679969 81.94,38.68 L83.56,38.68 Z M106.456,27.88 C106.456,28.7080041 106.384001,29.4279969 106.24,30.04 C106.384001,30.6160029 106.456,31.3359957 106.456,32.2 C106.456,33.0280041 106.384001,33.7479969 106.24,34.36 L94.9,34.36 C95.0440007,34.9360029 95.116,35.6559957 95.116,36.52 C95.116,37.3480041 95.0440007,38.0679969 94.9,38.68 L104.08,38.68 C104.224001,39.2560029 104.296,39.9759957 104.296,40.84 C104.296,41.6680041 104.224001,42.3879969 104.08,43 L93.28,43 C93.1359993,42.3879969 93.064,41.6680041 93.064,40.84 C93.064,39.9759957 93.1359993,39.2560029 93.28,38.68 L90.58,38.68 C90.4359993,38.0679969 90.364,37.3480041 90.364,36.52 C90.364,35.6559957 90.4359993,34.9360029 90.58,34.36 L88.96,34.36 C88.8159993,33.7479969 88.744,33.0280041 88.744,32.2 C88.744,31.3359957 88.8159993,30.6160029 88.96,30.04 L90.58,30.04 C90.4359993,29.4279969 90.364,28.7080041 90.364,27.88 C90.364,27.0159957 90.4359993,26.2960029 90.58,25.72 L93.28,25.72 C93.1359993,25.1079969 93.064,24.3880041 93.064,23.56 C93.064,22.6959957 93.1359993,21.9760029 93.28,21.4 L104.08,21.4 C104.224001,21.9760029 104.296,22.6959957 104.296,23.56 C104.296,24.3880041 104.224001,25.1079969 104.08,25.72 L106.24,25.72 C106.384001,26.2960029 106.456,27.0159957 106.456,27.88 Z M101.92,30.04 C101.775999,29.4279969 101.704,28.7080041 101.704,27.88 C101.704,27.0159957 101.775999,26.2960029 101.92,25.72 L94.9,25.72 C95.0440007,26.2960029 95.116,27.0159957 95.116,27.88 C95.116,28.7080041 95.0440007,29.4279969 94.9,30.04 L101.92,30.04 Z M126.976,36.52 C126.976,37.3480041 126.904001,38.0679969 126.76,38.68 L124.6,38.68 C124.744001,39.2560029 124.816,39.9759957 124.816,40.84 C124.816,41.6680041 124.744001,42.3879969 124.6,43 L112.72,43 C112.575999,42.3879969 112.504,41.6680041 112.504,40.84 C112.504,39.9759957 112.575999,39.2560029 112.72,38.68 L122.44,38.68 C122.295999,38.0679969 122.224,37.3480041 122.224,36.52 C122.224,35.6559957 122.295999,34.9360029 122.44,34.36 L113.8,34.36 C113.655999,33.7479969 113.584,33.0280041 113.584,32.2 C113.584,31.3359957 113.655999,30.6160029 113.8,30.04 L111.64,30.04 C111.495999,29.4279969 111.424,28.7080041 111.424,27.88 C111.424,27.0159957 111.495999,26.2960029 111.64,25.72 L113.8,25.72 C113.655999,25.1079969 113.584,24.3880041 113.584,23.56 C113.584,22.6959957 113.655999,21.9760029 113.8,21.4 L125.68,21.4 C125.824001,21.9760029 125.896,22.6959957 125.896,23.56 C125.896,24.3880041 125.824001,25.1079969 125.68,25.72 L115.96,25.72 C116.104001,26.2960029 116.176,27.0159957 116.176,27.88 C116.176,28.7080041 116.104001,29.4279969 115.96,30.04 L124.6,30.04 C124.744001,30.6160029 124.816,31.3359957 124.816,32.2 C124.816,33.0280041 124.744001,33.7479969 124.6,34.36 L126.76,34.36 C126.904001,34.9360029 126.976,35.6559957 126.976,36.52 Z" id="path-1"></path>
        <filter x="-6.4%" y="-13.2%" width="112.8%" height="152.9%" filterUnits="objectBoundingBox" id="filter-2">
            <feOffset dx="0" dy="4" in="SourceAlpha" result="shadowOffsetOuter1"></feOffset>
            <feGaussianBlur stdDeviation="2" in="shadowOffsetOuter1" result="shadowBlurOuter1"></feGaussianBlur>
            <feColorMatrix values="0 0 0 0 0   0 0 0 0 0   0 0 0 0 0  0 0 0 0.5 0" type="matrix" in="shadowBlurOuter1"></feColorMatrix>
        </filter>
    </defs>
    <g id="Symbols" stroke="none" stroke-width="1" fill="none" fill-rule="evenodd">
        <g id="Xarxes-mini" transform="translate(2.000000, -12.000000)">
            <g id="Xarxes">
                <use fill="black" fill-opacity="1" filter="url(#filter-2)" xlink:href="#path-1"></use>
                <use fill="#FF9900" fill-rule="evenodd" xlink:href="#path-1"></use>
            </g>
        </g>
    </g>
</svg>